<?xml version="1.0" encoding="UTF-8" standalone="no"?>
<svg
   xmlns:dc="http://purl.org/dc/elements/1.1/"
   xmlns:cc="http://creativecommons.org/ns#"
   xmlns:rdf="http://www.w3.org/1999/02/22-rdf-syntax-ns#"
   xmlns:svg="http://www.w3.org/2000/svg"
   xmlns="http://www.w3.org/2000/svg"
   xmlns:sodipodi="http://sodipodi.sourceforge.net/DTD/sodipodi-0.dtd"
   xmlns:inkscape="http://www.inkscape.org/namespaces/inkscape"
   inkscape:version="1.0 (4035a4fb49, 2020-05-01)"
   sodipodi:docname="Logo de BGH.svg"
   viewBox="0 0 250 97.840669"
   height="97.840668"
   width="250"
   id="svg10"
   version="1.1">
  <metadata
     id="metadata16">
    <rdf:RDF>
      <cc:Work
         rdf:about="">
        <dc:format>image/svg+xml</dc:format>
        <dc:type
           rdf:resource="http://purl.org/dc/dcmitype/StillImage" />
        <dc:title></dc:title>
      </cc:Work>
    </rdf:RDF>
  </metadata>
  <defs
     id="defs14" />
  <sodipodi:namedview
     inkscape:current-layer="g18"
     inkscape:window-maximized="1"
     inkscape:window-y="-8"
     inkscape:window-x="-8"
     inkscape:cy="-186.69207"
     inkscape:cx="-249.56297"
     inkscape:zoom="0.19463016"
     showgrid="false"
     id="namedview12"
     inkscape:window-height="705"
     inkscape:window-width="1366"
     inkscape:pageshadow="2"
     inkscape:pageopacity="0"
     guidetolerance="10"
     gridtolerance="10"
     objecttolerance="10"
     borderopacity="1"
     bordercolor="#666666"
     pagecolor="#ffffff" />
  <g
     transform="translate(-329.08014,-68.301579)"
     id="g18"
     inkscape:label="Image"
     inkscape:groupmode="layer">
    <path
       id="path22"
       d="m 355.44018,166.09424 c -0.56133,-0.055 -2.34101,-0.22465 -3.95484,-0.3769 -3.64832,-0.3442 -7.92133,-1.05996 -11.45564,-1.91892 -3.62158,-0.88017 -10.36508,-3.09356 -10.717,-3.51759 -0.2042,-0.24605 -0.26432,-12.20982 -0.21762,-43.30589 l 0.0645,-42.96593 2.0412,-0.813765 c 4.13076,-1.646801 12.18618,-3.438694 19.26391,-4.285171 1.8945,-0.226576 5.91313,-0.480007 8.93029,-0.563178 15.83615,-0.436544 24.95836,2.251418 31.70666,9.342721 1.83438,1.927618 2.39163,2.731233 3.58462,5.169392 1.84245,3.76549 2.23672,5.384755 2.40188,9.864406 0.21722,5.891586 -0.49137,9.670915 -2.56672,13.689785 -1.29317,2.50421 -4.1033,5.44532 -6.63959,6.94906 l -1.74856,1.03671 1.49341,0.43196 c 0.82137,0.23758 2.52677,0.96218 3.78977,1.61024 1.85477,0.95169 2.76723,1.64637 4.74495,3.61241 5.19894,5.16826 7.68228,11.2732 7.68455,18.89139 0.002,4.77928 -0.60637,7.58885 -2.46001,11.37168 -1.18875,2.42596 -1.75176,3.23711 -3.58112,5.15946 -4.19325,4.40638 -9.3169,7.18037 -16.59442,8.98434 -4.88283,1.21037 -8.5442,1.5646 -17.09512,1.65392 -4.21,0.044 -8.11381,0.0349 -8.67514,-0.0201 z m 13.01271,-17.21493 c 6.17571,-0.53743 9.75688,-1.73688 12.27767,-4.11222 2.58311,-2.43404 3.66927,-4.89452 3.66927,-8.31197 0,-3.77069 -1.14315,-6.57463 -3.61252,-8.86083 -1.67598,-1.55166 -3.46885,-2.47716 -6.28822,-3.24602 -1.78435,-0.48661 -2.88467,-0.54945 -12.04225,-0.68774 l -10.07847,-0.1522 -0.0834,-0.5882 c -0.0555,-0.39169 1.17236,-2.77838 3.67549,-7.14423 2.06738,-3.60582 4.01952,-6.97073 4.33809,-7.47757 l 0.57923,-0.92154 3.78255,-0.13354 c 3.14707,-0.11111 4.13305,-0.2465 5.86883,-0.80592 4.85459,-1.56457 7.46987,-5.11025 7.47886,-10.139506 0.005,-2.764839 -0.76201,-4.774242 -2.55298,-6.68879 -1.71071,-1.828748 -3.54015,-2.853036 -6.75701,-3.78317 -1.85244,-0.535625 -2.54852,-0.59002 -7.52696,-0.588198 -5.74648,0.0021 -7.71792,0.24289 -11.92831,1.456903 l -1.84985,0.533381 v 29.93104 29.93105 l 1.33954,0.4008 c 4.62953,1.38519 12.98471,1.97375 19.71043,1.38847 z m 77.94866,16.84577 c -5.58545,-0.67306 -10.28202,-2.04163 -14.6487,-4.26858 -13.56127,-6.91608 -20.05185,-21.42944 -20.05185,-44.83725 0,-17.577327 3.57507,-29.521507 11.2136,-37.464194 4.61806,-4.801951 9.6847,-7.654464 16.59787,-9.344592 4.95086,-1.210381 7.14901,-1.415596 15.05392,-1.405398 8.90846,0.01149 14.44452,0.590135 22.19815,2.320206 3.07013,0.685041 3.57212,0.9087 3.57212,1.591571 0,0.227773 -1.7979,3.556145 -3.99532,7.396378 l -3.99533,6.982247 -1.29907,-0.129555 c -0.71447,-0.07126 -2.84911,-0.393607 -4.74361,-0.71634 -2.96582,-0.505235 -4.36647,-0.588668 -10.07846,-0.600348 -6.16103,-0.01259 -6.78853,0.02849 -8.80271,0.576361 -10.11094,2.750251 -15.12617,10.400119 -16.35368,24.944714 -0.35421,4.19689 -0.15526,12.00803 0.40491,15.89757 2.09516,14.54793 8.22679,21.31468 20.39031,22.50238 4.78486,0.46722 10.35843,-0.34784 15.14131,-2.21421 l 1.84985,-0.72185 v -11.29643 -11.29643 l -11.03529,-0.0665 -11.03529,-0.0665 -0.0765,-0.65775 c -0.0544,-0.468 1.07818,-2.67616 3.92616,-7.65453 2.20145,-3.84824 4.17687,-7.19772 4.38982,-7.4433 0.36086,-0.41616 1.44768,-0.44652 15.98839,-0.44652 11.79409,0 15.67593,0.0747 15.90741,0.30618 0.23407,0.23408 0.30526,6.25815 0.30227,25.5789 -0.002,13.9 -0.0974,25.41998 -0.21157,25.59997 -0.25568,0.40294 -6.98993,2.85131 -11.13876,4.04972 -3.5792,1.03387 -7.59523,1.9252 -11.35422,2.52 -3.12444,0.49439 -15.04607,0.73399 -18.11573,0.36408 z m 57.5791,-0.92479 c -0.0935,-0.0936 -0.17008,-21.38826 -0.17008,-47.32156 0,-46.356128 0.008,-47.155912 0.49352,-47.415585 0.31284,-0.167428 3.71578,-0.264129 9.29479,-0.264129 7.66094,0 8.85321,0.05195 9.20222,0.400952 0.35706,0.357069 0.40094,2.409577 0.40094,18.753609 v 18.352653 h 16.91652 c 17.49149,0 17.54701,0.003 17.51712,1.00785 -0.007,0.21752 -2.00057,3.84002 -4.43133,8.05002 l -4.41955,7.65453 -12.79138,0.0661 -12.79138,0.0662 v 20.10354 c 0,15.2959 -0.0732,20.17677 -0.30618,20.40973 -0.22684,0.22685 -2.69516,0.30619 -9.52564,0.30619 -5.07071,0 -9.29601,-0.0765 -9.38957,-0.1701 z m 55.87811,0 c -0.0936,-0.0936 -0.1701,-21.38826 -0.1701,-47.32156 0,-46.356128 0.008,-47.155912 0.49353,-47.415585 0.6725,-0.359921 17.73189,-0.359921 18.40442,0 0.48518,0.259665 0.49353,1.056812 0.49353,47.182095 0,25.80487 -0.0697,47.09957 -0.15487,47.32155 -0.13734,0.35789 -1.21612,0.4036 -9.52565,0.4036 -5.15391,0 -9.44732,-0.0765 -9.54086,-0.1701 z"
       style="fill:#21336e;fill-opacity:1;stroke-width:0.25515" />
  </g>
</svg>
