<?xml version="1.0" encoding="utf-8"?>
<!-- Generator: Adobe Illustrator 26.1.0, SVG Export Plug-In . SVG Version: 6.00 Build 0)  -->
<svg version="1.1" id="Layer_1" xmlns="http://www.w3.org/2000/svg" xmlns:xlink="http://www.w3.org/1999/xlink" x="0px" y="0px"
	 viewBox="0 0 200 55" style="enable-background:new 0 0 200 55;" xml:space="preserve">
<style type="text/css">
	.st0{fill:#252525;}
</style>
<g>
	<path class="st0" d="M39.2,27.7c0-6,8.6-9.4,19.3-9.4c4.1,0,7.3,0.4,8.7,0.8l-1.7,3.1c-1.6-0.3-3.8-0.7-6.7-0.7
		c-6.3,0-11.2,1.9-11.2,5.9c0,3.5,4.2,5.8,11.3,5.8c2.5,0,5.1-0.2,6.7-0.6l1.2,3.1c-1.4,0.3-4.8,0.8-9,0.8
		C45.5,36.6,39.2,32.8,39.2,27.7 M135.5,36.3l11.9-17.7h-8.5c0,0-6.8,12.3-7.7,14.4H131c-0.8-2.2-7.4-14.4-7.4-14.4h-8.8l11.3,17.7
		H135.5z M172.2,25.9h-13v-3.9H173v-3.3h-21.8v17.7H173v-3.3h-13.8v-3.9h13V25.9z M186.2,18.7h-8v17.7H200v-3.3h-13.8V18.7z
		 M111.1,18.7h-8v17.7h8V18.7z M95.9,31.3c1.1,2,2.8,5,2.8,5h-8.2l-2.3-4.5c0,0-0.9-2.4-5.1-2.4h-3.1v6.9H72V18.9
		c2.6-0.2,6.3-0.4,10.6-0.4c5.2,0,8.9,0.4,11.4,1.4c2.2,0.8,3.3,2.1,3.3,3.7c0,2.2-3.2,3.8-6.2,4.3v0.1
		C93.9,28.1,95.9,31.3,95.9,31.3z M89.4,24c0-1.6-2.2-2.4-5.9-2.4c-1.9,0-3,0.1-3.6,0.1v4.9h3.1C87.1,26.5,89.4,25.5,89.4,24z"/>
	<path class="st0" d="M28,54.4C15,55.3,3,45.7,0.6,32.9C-1.7,22.1,3.2,10.4,12.6,4.6c4.5-2.9,10-4.3,15.3-3.9
		C24.5,0.9,21,1.7,17.9,3.2C5,9-1.2,24.3,4.1,37.4C7.9,47.1,17.6,53.8,28,54.4L28,54.4z M28,49.7C16.3,48.9,6.8,39.3,6.9,27.5
		C6.8,19.1,12,11,19.7,7.5c2.6-1.2,5.4-1.9,8.3-2.2C23.6,5,19,6.1,15.3,8.5C7.4,13.3,3.2,23,5.2,32C7.2,42.6,17.2,50.6,28,49.7
		L28,49.7z M28,45c-10.3-0.9-18-10.4-16.1-20.7C13.3,16.5,20.1,10.7,28,10C18,9,9.3,17.6,9.4,27.5C9.3,37.4,18,46,28,45L28,45z
		 M28,40.3c-15.5-2.4-15.5-23.1,0-25.5c-1.7-0.2-3.4-0.1-5.1,0.5c-5.7,1.8-9.3,7.7-8.7,13.6C14.8,35.7,21.1,41.2,28,40.3L28,40.3z
		 M28,35.6c-6.2-1.2-9.2-8.2-5.1-13.2c1.2-1.5,3-2.5,5.1-3c-1.1-0.2-2.2-0.2-3.3,0.1c-1.1,0.3-2.1,0.9-3,1.6
		c-2.8,2.3-3.6,6.5-2.1,9.8C20.9,34.1,24.6,36.3,28,35.6L28,35.6z"/>
</g>
</svg>
