<?xml version="1.0" encoding="UTF-8"?>
<svg width="500" height="74" fill="none" version="1.1" viewBox="0 0 500 74" xmlns="http://www.w3.org/2000/svg">
 <path d="m251.95 1.7909c-0.82526-0.77362-2.001-0.77625-2.001-0.77625h-5.5766s-1.3633 0.00896-2.0987 0.9124c-0.76875 0.87125-0.80729 1.5789-0.80729 1.5789l0.0221 33.901c0 0.0083 2e-3 0.01693 2e-3 0.0263 0 0.0081-2e-3 0.01641-2e-3 0.02422v0.0049h-2e-3c-0.0148 1.325-1.0932 2.3945-2.425 2.3945-0.68776 0-1.3081-0.28854-1.749-0.74766-4e-3 5.21e-4 -0.0159 0.0057-0.0159 0.0057l-31.99-36.329s-0.73593-0.85594-1.1203-1.172c-0.73698-0.60581-1.7474-0.59893-1.7474-0.59893h-12.182s-1.52-0.079167-2.6424 0.96094c-1.2555 1.1647-1.2185 2.419-1.2185 2.419l0.0482 65.76s0.049 0.7836 0.79089 1.6878c0.64766 0.78672 1.7656 0.77839 1.7656 0.77839h7.5919s0.87058-0.0039 1.7732-0.86406c0.72891-0.69636 0.74844-1.1872 0.74844-1.1872l0.0396-31.916c-3e-3 -0.04583-0.0151-0.09011-0.0151-0.13516 0-1.3398 1.0886-2.4258 2.4302-2.4258 0.68463 0 1.3016 0.28594 1.743 0.74193 6e-3 -0.0063 0.0148-0.01745 0.0148-0.01745l31.071 34.105s0.51719 0.55286 1.1784 1.1729c0.54896 0.51354 1.4245 0.5263 1.4245 0.5263h12.41s1.4576 0.02213 2.3341-1.0792c1.0448-1.3115 1.0419-2.3083 1.0419-2.3083v-65.754s-0.0221-0.92297-0.83672-1.6892zm-159.12 68.516-8.9029-64.864s-0.12578-1.0776-1.4172-2.3198c-1.0885-1.0449-2.4557-1.0507-2.4557-1.0507h-13.099s-1.2794 0.12401-1.8445 1.0427c-0.40964 0.6649-0.64297 1.2322-0.64297 1.2322l-14.362 34.808c-0.31458 0.97656-1.2208 1.687-2.3029 1.687-1.0346 0-1.9117-0.64896-2.2622-1.5599l-14.953-34.945s-0.3474-0.89235-0.9849-1.5683c-0.68151-0.72456-1.8779-0.69656-1.8779-0.69656h-13.336s-1.53 0.08336-2.5715 0.93615c-1.1657 0.95409-1.337 2.5171-1.337 2.5171l-10.48 65.657s-0.047051 0.90235 0.85804 1.8057c0.68516 0.68229 1.6791 0.69089 1.6791 0.69089h7.6636s1.0256-0.06588 1.8091-0.87344c0.67617-0.69401 0.68464-1.3938 0.68464-1.3938l3.7964-31.72s0.0085 0.0029 0.0095 0.0029c0.08404-1.2635 1.1261-2.2656 2.4134-2.2656 0.93998 0 1.7457 0.5388 2.1501 1.3182 0.04547 0.01641 0.0719 0.02604 0.0719 0.02604l14.255 33.601s-0.11745-0.25964 0.35781 0.40156c0.64557 0.89375 1.8133 0.90339 1.8133 0.90339h6.5667s0.94896-0.11406 1.5232-0.6138c0.63698-0.55469 0.96485-1.4521 0.96485-1.4521l13.759-32.812h0.0044c0.33307-0.94818 1.2359-1.6328 2.3086-1.6328 1.356 0 2.4542 1.0852 2.4542 2.4245 0 0.01354-0.0036 0.02734-0.0036 0.04115l3.5188 30.718s0.1026 1.2482 1.1794 2.3659c0.80677 0.83906 2.2336 0.96146 2.2336 0.96146h17.421s1.5154 0.02526 2.3464-1.0565c1.0987-1.4307 0.99063-2.3156 0.99063-2.3156zm407.17-0.58229v-7.1958s0.0339-0.7724-0.89323-1.6833c-0.84896-0.82943-1.9375-0.76094-1.9375-0.76094l-18.182 0.0112s-0.013-0.0112-0.0312-0.0237c-1.2604-0.06458-2.2656-1.0792-2.2995-2.3432-0.013-0.01667-0.0208-0.03151-0.0208-0.03151l0.1224-53.31s0-1.4385-1.1042-2.3626c-1.2031-1.0069-2.3021-1.0095-2.3021-1.0095h-18.24s-1.4193 0.017396-2.3255 1.0908c-1.0391 1.2333-1.0182 2.2728-1.0182 2.2728v65.432s0.0755 1.0406 0.82552 1.9029c0.85157 0.97891 2.0052 0.90808 2.0052 0.90808h42.524s1.125-0.08125 1.9974-0.89662c0.95834-0.8961 0.88021-2 0.88021-2zm-157.92-67.91c-1.0078 0.99209-1.2005 2.3082-1.2005 2.3082v64.985s-0.0104 1.1547 1.0313 2.2596c1.013 1.0719 2.3516 1.0992 2.3516 1.0992h17.471s1.388 0.0349 2.3828-1.0753c1.0182-1.1367 1.0104-2.3214 1.0104-2.3214v-64.948s-3e-3 -1.4855-1.1354-2.3667c-1.1745-0.91347-2.263-0.99895-2.263-0.99895h-16.935s-1.6432 0.010018-2.7135 1.058zm-204.83-1.4936h-0.10521c-27.404 0-40.65 16.743-40.65 36.469 0 19.727 13.513 36.523 40.65 36.63h0.10521c27.295 0.10391 40.864-16.796 40.864-36.63 0-19.834-13.301-36.469-40.864-36.469zm-0.10521 64.89c-9.2427 0-16.719-6.4-16.719-28.421 0-21.966 7.4761-28.365 16.719-28.365 9.2932 0 16.77 6.239 16.77 28.365 0 22.181-7.4768 28.421-16.77 28.421zm159.75-63.925v-0.00474h-30.813c8e-3 -0.00951-1.5599-0.013203-2.6042 0.98682-1.3255 1.2264-1.3021 2.3884-1.3021 2.3884v64.759s-0.0885 1.4057 1.0938 2.3878c1.0443 0.86849 2.2031 0.97578 2.3021 0.97318 8.474-0.01484 29.953-0.04974 31.323-0.04974v-0.0021c16.513 0.05547 33.836-8.8154 35.643-33.909 1.3307-30.182-21.74-37.27-35.643-37.529zm-0.14583 62.375v0.02995c-2.7474 0.62604-4.5599 0.84974-8.7292 0.64714-0.25521-0.01172-1.1484-0.19479-1.7708-0.93255-0.64844-0.76823-0.65365-1.3867-0.66146-1.6521-0.54948-17.397-0.44792-31.84 5e-3 -49.642 8e-3 -0.26544 0.15626-1.1013 0.82032-1.742 0.66146-0.63958 1.5677-0.78047 1.8307-0.79367 4.1563-0.20526 5.7656 0.05753 8.5052 0.63378v0.02745c8.0677 1.761 10.737 8.1583 11.698 27.031-0.10677 16.318-2.2943 24.099-11.698 26.393zm146.59 6.1003-25.839-65.348s-0.60156-1.6844-1.5521-2.4549c-1.1068-0.895-2.0729-0.91453-2.0729-0.91453h-9.8229s-1.0026-0.014766-1.9818 0.96412c-0.67708 0.6781-1.1849 2.0137-1.3021 2.3515-0.0104 0.020052-0.0234 0.029011-0.0312 0.051719-0.0234 0.068594-0.0521 0.13773-0.0807 0.20792-8.8099 23.087-24.833 59.48-27.714 65.989 0 0-0.25 0.67162 0.11719 1.3393 0.36459 0.66172 1.1927 0.7112 1.1927 0.7112l10.831-0.0089s0.31511-0.03958 0.64844-0.30495c0.26563-0.21536 0.36459-0.5849 0.36459-0.5849l4.2136-12.199s0.17448-0.50261 0.6224-0.89922c0.47135-0.41953 1.5234-0.3099 1.5234-0.3099l20.385-0.01432s0.54687-0.04635 1.013 0.2349c0.32813 0.20052 0.54688 0.61068 0.57813 0.7599 1.0938 3.0096 4.6042 11.986 4.7526 12.417 0 0 0.0651 0.29662 0.4974 0.66016 0.31771 0.26484 1.0781 0.23177 1.0781 0.23177l19.776-0.03229s1.5417 0.08542 2.2422-0.73724c0.99219-1.1615 0.5599-2.1107 0.5599-2.1107zm-33.69-21.21c-0.53125 0.8263-1.3281 0.71146-1.3281 0.71146l-12.352 0.01615s-0.74739 0-1.2422-0.69531c-0.42187-0.58958-0.15104-1.3383-0.15104-1.3383l5.9115-17.012s0.31511-1.0771 1.4557-1.0576c0.97916 0.01589 1.3464 0.92578 1.3464 0.92578l6.4896 17.144s0.27083 0.68021-0.13021 1.306z" fill="#2b2b2a" stroke-width="2.6042"/>
</svg>
