<?xml version="1.0" encoding="UTF-8" standalone="no"?>
<!-- Created with Inkscape (http://www.inkscape.org/) -->

<svg
   width="132.29167mm"
   height="30.949141mm"
   viewBox="0 0 132.29167 30.94914"
   version="1.1"
   id="svg1"
   inkscape:version="1.4 (86a8ad7, 2024-10-11)"
   sodipodi:docname="Patriot Memory logo.svg"
   xmlns:inkscape="http://www.inkscape.org/namespaces/inkscape"
   xmlns:sodipodi="http://sodipodi.sourceforge.net/DTD/sodipodi-0.dtd"
   xmlns="http://www.w3.org/2000/svg"
   xmlns:svg="http://www.w3.org/2000/svg">
  <sodipodi:namedview
     id="namedview1"
     pagecolor="#ffffff"
     bordercolor="#000000"
     borderopacity="0.25"
     inkscape:showpageshadow="2"
     inkscape:pageopacity="0.0"
     inkscape:pagecheckerboard="0"
     inkscape:deskcolor="#d1d1d1"
     inkscape:document-units="mm"
     inkscape:zoom="1.9729351"
     inkscape:cx="249.37466"
     inkscape:cy="64.62453"
     inkscape:window-width="1920"
     inkscape:window-height="1001"
     inkscape:window-x="-9"
     inkscape:window-y="-9"
     inkscape:window-maximized="1"
     inkscape:current-layer="layer1" />
  <defs
     id="defs1">
    <clipPath
       clipPathUnits="userSpaceOnUse"
       id="clipPath8">
      <path
         d="M 0,792 H 612 V 0 H 0 Z"
         transform="translate(-533.59771,-739.31202)"
         id="path8" />
    </clipPath>
    <clipPath
       clipPathUnits="userSpaceOnUse"
       id="clipPath10">
      <path
         d="M 0,792 H 612 V 0 H 0 Z"
         transform="translate(-562.17481,-743.61962)"
         id="path10" />
    </clipPath>
    <clipPath
       clipPathUnits="userSpaceOnUse"
       id="clipPath12">
      <path
         d="M 0,792 H 612 V 0 H 0 Z"
         transform="translate(-588.48731,-742.48392)"
         id="path12" />
    </clipPath>
    <clipPath
       clipPathUnits="userSpaceOnUse"
       id="clipPath14">
      <path
         d="M 0,792 H 612 V 0 H 0 Z"
         transform="translate(-439.40041,-746.45462)"
         id="path14" />
    </clipPath>
    <clipPath
       clipPathUnits="userSpaceOnUse"
       id="clipPath16">
      <path
         d="M 0,792 H 612 V 0 H 0 Z"
         transform="translate(-470.65531,-746.72712)"
         id="path16" />
    </clipPath>
    <clipPath
       clipPathUnits="userSpaceOnUse"
       id="clipPath18">
      <path
         d="M 0,792 H 612 V 0 H 0 Z"
         transform="translate(-497.88961,-746.96342)"
         id="path18" />
    </clipPath>
    <clipPath
       clipPathUnits="userSpaceOnUse"
       id="clipPath20">
      <path
         d="M 0,792 H 612 V 0 H 0 Z"
         transform="translate(-533.59771,-739.31202)"
         id="path20" />
    </clipPath>
    <clipPath
       clipPathUnits="userSpaceOnUse"
       id="clipPath22">
      <path
         d="M 0,792 H 612 V 0 H 0 Z"
         transform="translate(-562.17481,-743.61962)"
         id="path22" />
    </clipPath>
    <clipPath
       clipPathUnits="userSpaceOnUse"
       id="clipPath24">
      <path
         d="M 0,792 H 612 V 0 H 0 Z"
         transform="translate(-588.48731,-742.48392)"
         id="path24" />
    </clipPath>
    <clipPath
       clipPathUnits="userSpaceOnUse"
       id="clipPath26">
      <path
         d="M 0,792 H 612 V 0 H 0 Z"
         transform="translate(-430.98631,-777.34622)"
         id="path26" />
    </clipPath>
    <clipPath
       clipPathUnits="userSpaceOnUse"
       id="clipPath28">
      <path
         d="M 0,792 H 612 V 0 H 0 Z"
         transform="translate(-434.38771,-768.56592)"
         id="path28" />
    </clipPath>
    <clipPath
       clipPathUnits="userSpaceOnUse"
       id="clipPath30">
      <path
         d="M 0,792 H 612 V 0 H 0 Z"
         transform="translate(-438.61331,-762.82962)"
         id="path30" />
    </clipPath>
    <clipPath
       clipPathUnits="userSpaceOnUse"
       id="clipPath32">
      <path
         d="M 0,792 H 612 V 0 H 0 Z"
         transform="translate(-424.91021,-774.22312)"
         id="path32" />
    </clipPath>
    <clipPath
       clipPathUnits="userSpaceOnUse"
       id="clipPath34">
      <path
         d="M 0,792 H 612 V 0 H 0 Z"
         transform="translate(-420.47751,-777.34232)"
         id="path34" />
    </clipPath>
    <clipPath
       clipPathUnits="userSpaceOnUse"
       id="clipPath36">
      <path
         d="M 0,792 H 612 V 0 H 0 Z"
         transform="translate(-423.25291,-767.49462)"
         id="path36" />
    </clipPath>
    <clipPath
       clipPathUnits="userSpaceOnUse"
       id="clipPath38">
      <path
         d="M 0,792 H 612 V 0 H 0 Z"
         transform="translate(-436.39941,-779.78862)"
         id="path38" />
    </clipPath>
    <clipPath
       clipPathUnits="userSpaceOnUse"
       id="clipPath40">
      <path
         d="M 0,792 H 612 V 0 H 0 Z"
         transform="translate(-443.24321,-774.71532)"
         id="path40" />
    </clipPath>
    <clipPath
       clipPathUnits="userSpaceOnUse"
       id="clipPath42">
      <path
         d="M 0,792 H 612 V 0 H 0 Z"
         id="path42" />
    </clipPath>
    <clipPath
       clipPathUnits="userSpaceOnUse"
       id="clipPath44">
      <path
         d="M 0,792 H 612 V 0 H 0 Z"
         id="path44" />
    </clipPath>
    <clipPath
       clipPathUnits="userSpaceOnUse"
       id="clipPath46">
      <path
         d="M 0,792 H 612 V 0 H 0 Z"
         transform="translate(-525.93652,-765.60992)"
         id="path46" />
    </clipPath>
    <clipPath
       clipPathUnits="userSpaceOnUse"
       id="clipPath48">
      <path
         d="M 0,792 H 612 V 0 H 0 Z"
         id="path48" />
    </clipPath>
    <clipPath
       clipPathUnits="userSpaceOnUse"
       id="clipPath50">
      <path
         d="M 0,792 H 612 V 0 H 0 Z"
         transform="translate(-579.06841,-778.89112)"
         id="path50" />
    </clipPath>
    <clipPath
       clipPathUnits="userSpaceOnUse"
       id="clipPath52">
      <path
         d="M 0,792 H 612 V 0 H 0 Z"
         id="path52" />
    </clipPath>
    <clipPath
       clipPathUnits="userSpaceOnUse"
       id="clipPath54">
      <path
         d="M 0,792 H 612 V 0 H 0 Z"
         id="path54" />
    </clipPath>
    <clipPath
       clipPathUnits="userSpaceOnUse"
       id="clipPath56">
      <path
         d="M 0,792 H 612 V 0 H 0 Z"
         transform="translate(-550.55471,-762.78962)"
         id="path56" />
    </clipPath>
    <clipPath
       clipPathUnits="userSpaceOnUse"
       id="clipPath58">
      <path
         d="M 0,792 H 612 V 0 H 0 Z"
         transform="translate(-577.35161,-766.36962)"
         id="path58" />
    </clipPath>
    <clipPath
       clipPathUnits="userSpaceOnUse"
       id="clipPath60">
      <path
         d="M 0,792 H 612 V 0 H 0 Z"
         transform="translate(-577.53131,-763.66162)"
         id="path60" />
    </clipPath>
    <clipPath
       clipPathUnits="userSpaceOnUse"
       id="clipPath62">
      <path
         d="M 0,792 H 612 V 0 H 0 Z"
         transform="translate(-577.53131,-764.89502)"
         id="path62" />
    </clipPath>
    <clipPath
       clipPathUnits="userSpaceOnUse"
       id="clipPath64">
      <path
         d="M 0,792 H 612 V 0 H 0 Z"
         transform="translate(-577.53131,-764.88042)"
         id="path64" />
    </clipPath>
    <clipPath
       clipPathUnits="userSpaceOnUse"
       id="clipPath66">
      <path
         d="M 0,792 H 612 V 0 H 0 Z"
         transform="translate(-577.58201,-764.04642)"
         id="path66" />
    </clipPath>
    <clipPath
       clipPathUnits="userSpaceOnUse"
       id="clipPath68">
      <path
         d="M 0,792 H 612 V 0 H 0 Z"
         transform="translate(-577.58201,-764.04642)"
         id="path68" />
    </clipPath>
  </defs>
  <g
     inkscape:label="Layer 1"
     inkscape:groupmode="layer"
     id="layer1"
     transform="translate(-161.08907,-102.1338)">
    <path
       id="path4"
       d="m 177.13027,126.41566 1.80529,-0.0123 1.82193,4.65075 1.7575,-4.68694 1.79082,-0.0164 0.0572,6.66883 -1.1314,0.0103 -0.047,-5.53602 h -0.0205 l -1.97541,5.55266 -0.82664,0.008 -2.07309,-5.51575 h -0.0185 l 0.0464,5.53385 -1.12994,0.0103 z"
       style="fill:#ffffff;fill-opacity:1;fill-rule:nonzero;stroke:none;stroke-width:0.352779" />
    <path
       id="path5"
       d="m 199.75417,126.21841 4.41477,-0.0369 0.008,1.07058 -3.22548,0.0318 0.0123,1.63517 3.05971,-0.0261 0.0103,1.07347 -3.06117,0.0246 0.0164,1.80891 3.40065,-0.0298 0.008,1.07637 -4.58561,0.0361 z"
       style="fill:#ffffff;fill-opacity:1;fill-rule:nonzero;stroke:none;stroke-width:0.352779" />
    <path
       id="path6"
       d="m 219.46774,126.04737 1.80818,-0.0164 1.82121,4.65364 1.75532,-4.68622 1.78865,-0.0164 0.0593,6.66669 -1.13139,0.0103 -0.0478,-5.53456 h -0.0205 l -1.97756,5.55338 -0.82666,0.002 -2.0702,-5.51357 h -0.0185 l 0.0478,5.53602 -1.1292,0.008 z"
       style="fill:#ffffff;fill-opacity:1;fill-rule:nonzero;stroke:none;stroke-width:0.352779" />
    <path
       id="path7"
       d="M 0,0 C 1.909,0.021 3.158,1.484 3.142,3.449 3.128,5.283 1.853,6.727 -0.057,6.713 -1.959,6.696 -3.206,5.228 -3.189,3.396 -3.175,1.432 -1.899,-0.014 0,0 M -0.082,8.195 C 2.791,8.271 4.835,6.366 4.86,3.412 4.886,0.54 2.876,-1.401 0,-1.479 -2.839,-1.511 -4.884,0.401 -4.905,3.272 -4.93,6.23 -2.922,8.171 -0.082,8.195"
       style="fill:#ffffff;fill-opacity:1;fill-rule:evenodd;stroke:none;stroke-width:0.487362"
       transform="matrix(0.72385095,0,0,-0.72385095,245.31508,131.58585)"
       clip-path="url(#clipPath8)" />
    <path
       id="path9"
       d="M 0,0 C 0.928,0.011 2.004,0.095 1.991,1.296 1.982,2.386 0.965,2.509 0.125,2.501 L -1.295,2.485 -1.273,-0.01 Z M -2.943,3.88 0.255,3.906 C 2.022,3.923 3.693,3.364 3.707,1.296 3.722,-0.032 2.961,-1.013 1.598,-1.219 l 2.48,-4.051 -1.976,-0.015 -2.166,3.881 -1.2,-0.009 0.038,-3.9 -1.636,-0.02 z"
       style="fill:#ffffff;fill-opacity:1;fill-rule:evenodd;stroke:none;stroke-width:0.487362"
       transform="matrix(0.72385095,0,0,-0.72385095,266.00063,128.46778)"
       clip-path="url(#clipPath10)" />
    <path
       id="path11"
       d="M 0,0 -3.506,5.237 -1.45,5.257 0.846,1.604 3.104,5.296 5.052,5.309 1.641,0.013 1.674,-3.926 0.033,-3.937 Z"
       style="fill:#ffffff;fill-opacity:1;fill-rule:evenodd;stroke:none;stroke-width:0.487362"
       transform="matrix(0.72385095,0,0,-0.72385095,285.04697,129.28985)"
       clip-path="url(#clipPath12)" />
    <path
       id="path13"
       d="M 0,0 2.494,0.017 5.011,-6.408 7.439,0.067 9.913,0.09 9.992,-9.123 8.429,-9.136 8.364,-1.488 H 8.336 L 5.607,-9.159 4.465,-9.169 1.601,-1.549 H 1.576 L 1.64,-9.194 0.079,-9.209 Z"
       style="fill:#176fc1;fill-opacity:1;fill-rule:nonzero;stroke:none;stroke-width:0.487362"
       transform="matrix(0.72385095,0,0,-0.72385095,177.13026,126.41565)"
       clip-path="url(#clipPath14)" />
    <path
       id="path15"
       d="M 0,0 6.099,0.051 6.11,-1.428 1.654,-1.472 1.671,-3.731 5.898,-3.695 5.912,-5.178 1.683,-5.212 1.705,-7.711 6.403,-7.67 6.414,-9.157 0.079,-9.207 Z"
       style="fill:#176fc1;fill-opacity:1;fill-rule:nonzero;stroke:none;stroke-width:0.487362"
       transform="matrix(0.72385095,0,0,-0.72385095,199.75416,126.2184)"
       clip-path="url(#clipPath16)" />
    <path
       id="path17"
       d="M 0,0 2.498,0.022 5.014,-6.407 7.439,0.067 9.91,0.089 9.992,-9.121 8.429,-9.136 8.363,-1.49 H 8.336 L 5.604,-9.162 4.462,-9.166 1.602,-1.549 H 1.576 l 0.066,-7.648 -1.56,-0.01 z"
       style="fill:#176fc1;fill-opacity:1;fill-rule:nonzero;stroke:none;stroke-width:0.487362"
       transform="matrix(0.72385095,0,0,-0.72385095,219.46772,126.04736)"
       clip-path="url(#clipPath18)" />
    <path
       id="path19"
       d="M 0,0 C 1.909,0.021 3.158,1.484 3.142,3.449 3.128,5.283 1.853,6.727 -0.057,6.713 -1.959,6.696 -3.206,5.228 -3.189,3.396 -3.175,1.432 -1.899,-0.014 0,0 M -0.082,8.195 C 2.791,8.271 4.835,6.366 4.86,3.412 4.886,0.54 2.876,-1.401 0,-1.479 -2.839,-1.511 -4.884,0.401 -4.905,3.272 -4.93,6.23 -2.922,8.171 -0.082,8.195"
       style="fill:#176fc1;fill-opacity:1;fill-rule:nonzero;stroke:none;stroke-width:0.487362"
       transform="matrix(0.72385095,0,0,-0.72385095,245.31508,131.58585)"
       clip-path="url(#clipPath20)" />
    <path
       id="path21"
       d="M 0,0 C 0.928,0.011 2.004,0.095 1.991,1.296 1.982,2.386 0.965,2.509 0.125,2.501 L -1.295,2.485 -1.273,-0.01 Z M -2.943,3.88 0.255,3.906 C 2.022,3.923 3.693,3.364 3.707,1.296 3.722,-0.032 2.961,-1.013 1.598,-1.219 l 2.48,-4.051 -1.976,-0.015 -2.166,3.881 -1.2,-0.009 0.038,-3.9 -1.636,-0.02 z"
       style="fill:#176fc1;fill-opacity:1;fill-rule:nonzero;stroke:none;stroke-width:0.487362"
       transform="matrix(0.72385095,0,0,-0.72385095,266.00063,128.46778)"
       clip-path="url(#clipPath22)" />
    <path
       id="path23"
       d="M 0,0 -3.506,5.237 -1.45,5.257 0.846,1.604 3.104,5.296 5.052,5.309 1.641,0.013 1.674,-3.926 0.033,-3.937 Z"
       style="fill:#176fc1;fill-opacity:1;fill-rule:nonzero;stroke:none;stroke-width:0.487362"
       transform="matrix(0.72385095,0,0,-0.72385095,285.04697,129.28985)"
       clip-path="url(#clipPath24)" />
    <path
       id="path25"
       d="m 0,0 h -1.385 l 0.35,1.382 H -2.251 L -2.599,0 h -1.382 l -0.303,-1.21 h 1.386 l -0.351,-1.387 h 1.214 l 0.348,1.387 h 1.381 z"
       style="fill:#267ecb;fill-opacity:1;fill-rule:nonzero;stroke:none;stroke-width:0.487362"
       transform="matrix(0.72385095,0,0,-0.72385095,171.0397,104.05473)"
       clip-path="url(#clipPath26)" />
    <path
       id="path27"
       d="m 0,0 h -2.138 l 0.537,2.142 H -3.476 L -4.011,0 h -2.135 l -0.469,-1.868 h 2.136 l -0.54,-2.139 h 1.876 l 0.536,2.139 h 2.133 z"
       style="fill:#267ecb;fill-opacity:1;fill-rule:nonzero;stroke:none;stroke-width:0.487362"
       transform="matrix(0.72385095,0,0,-0.72385095,173.50181,110.41037)"
       clip-path="url(#clipPath28)" />
    <path
       id="path29"
       d="m 0,0 h -2.132 l 0.535,2.133 H -3.468 L -4.005,0 h -2.137 l -0.468,-1.874 2.132,0.003 -0.534,-2.14 h 1.872 l 0.535,2.14 h 2.138 z"
       style="fill:#267ecb;fill-opacity:1;fill-rule:nonzero;stroke:none;stroke-width:0.487362"
       transform="matrix(0.72385095,0,0,-0.72385095,176.56052,114.5626)"
       clip-path="url(#clipPath30)" />
    <path
       id="path31"
       d="m 0,0 h -1.047 l 0.264,1.044 H -1.7 L -1.963,0 -3.012,-0.003 -3.238,-0.919 h 1.042 l -0.261,-1.045 h 0.919 l 0.263,1.045 h 1.046 z"
       style="fill:#267ecb;fill-opacity:1;fill-rule:nonzero;stroke:none;stroke-width:0.487362"
       transform="matrix(0.72385095,0,0,-0.72385095,166.64151,106.31541)"
       clip-path="url(#clipPath32)" />
    <path
       id="path33"
       d="m 0,0 h -1.045 l 0.264,1.047 H -1.699 L -1.964,0 h -1.043 l -0.231,-0.918 h 1.046 l -0.262,-1.046 h 0.92 l 0.261,1.046 h 1.045 z"
       style="fill:#267ecb;fill-opacity:1;fill-rule:nonzero;stroke:none;stroke-width:0.487362"
       transform="matrix(0.72385095,0,0,-0.72385095,163.4329,104.05756)"
       clip-path="url(#clipPath34)" />
    <path
       id="path35"
       d="m 0,0 h -1.048 l 0.265,1.045 H -1.702 L -1.965,0 H -3.013 L -3.24,-0.92 h 1.046 l -0.26,-1.045 h 0.914 l 0.262,1.045 h 1.049 z"
       style="fill:#267ecb;fill-opacity:1;fill-rule:nonzero;stroke:none;stroke-width:0.487362"
       transform="matrix(0.72385095,0,0,-0.72385095,165.44187,111.18583)"
       clip-path="url(#clipPath36)" />
    <path
       id="path37"
       d="M 0,0 H -1.405 L -1.84,-1.578 h 1.446 z"
       style="fill:#267ecb;fill-opacity:1;fill-rule:nonzero;stroke:none;stroke-width:0.487362"
       transform="matrix(0.72385095,0,0,-0.72385095,174.95799,102.28681)"
       clip-path="url(#clipPath38)" />
    <path
       id="path39"
       d="M 0,0 H 2.036 L 1.531,-2.016 H -0.505 Z M 15.336,5.068 H -4.973 L -5.366,3.495 h 2.135 L -3.7,1.624 h -2.139 l -0.534,-2.136 h -1.87 l 0.532,2.136 H -9.2 l -1.032,-3.734 h 3.977 l -0.649,-2.578 h 3.055 L -4.62,-7.744 h 2.681 l 0.761,3.056 h 3.053 l 0.647,2.578 8.019,0.002 -0.012,0.005 h 4.335 l 2.372,3.422 0.304,-3.422 h 4.339 l -4.148,-2.109 0.305,-3.417 -2.867,2.109 -4.147,-2.109 2.227,3.202 c -0.316,-0.166 -0.673,-0.261 -1.02,-0.261 H 3.912 L 3.65,-5.727 H 0.868 l -4.335,-16.7 h 8.401 l 2.7,9.482 h 9.33 c 4.03,0 8.489,3.029 9.301,9.014 1.295,9.496 -10.929,8.999 -10.929,8.999"
       style="fill:#267ecb;fill-opacity:1;fill-rule:nonzero;stroke:none;stroke-width:0.487362"
       transform="matrix(0.72385095,0,0,-0.72385095,179.91188,105.95913)"
       clip-path="url(#clipPath40)" />
    <path
       id="path41"
       d="m 496.026,752.462 h 7.049 v 17.842 h -7.049 z"
       style="fill:#267ecb;fill-opacity:1;fill-rule:nonzero;stroke:none;stroke-width:0.487362"
       transform="matrix(0.72385095,0,0,-0.72385095,-140.93015,666.73756)"
       clip-path="url(#clipPath42)" />
    <path
       id="path43"
       d="m 513.43,752.462 h 7.046 v 4.561 h -7.046 z"
       style="fill:#267ecb;fill-opacity:1;fill-rule:nonzero;stroke:none;stroke-width:0.487362"
       transform="matrix(0.72385095,0,0,-0.72385095,-140.93015,666.73756)"
       clip-path="url(#clipPath44)" />
    <path
       id="path45"
       d="M 0,0 H -5.461 V 7.147 H 0 C 2.326,7.147 2.927,6.481 2.927,4.123 2.927,1.122 3.033,0 0,0 m -38.675,13.088 h 0.087 V 13.003 Z M 5.179,-3.142 v 0.288 c 5.008,1.159 5.008,3.732 5.008,8.136 0,6.588 -3,7.897 -9.091,7.999 -28.269,2.629 -49.114,-0.241 -49.114,-0.241 l -0.358,-0.225 c -2.398,-3.679 -3.643,-5.521 -6.025,-9.054 l -5.669,-8.256 c -3.391,-5.039 -3.956,-5.79 -5.997,-8.645 l 0.137,-0.45 c 3.125,0.112 3.979,0.112 6.836,0.112 l 0.317,0.227 2.607,4.243 1.596,2.59 h 8.963 l -0.071,-2.778 -0.214,-4.166 0.238,-0.228 7.307,0.112 0.278,0.227 c -0.234,8.162 -0.325,12.292 -0.393,17.945 h -6.77 l -0.033,-2.132 -0.105,-4.434 h -6.398 l 6.45,8.946 v 0.07 h 0.048 l 0.073,0.104 V 7.144 h 6.71 v 0.003 h 8.581 V 7.144 h 7.049 v 0.003 h 10.354 V -6.136 H -5.461 0 c 2.117,0 2.962,-1.336 2.889,-3.308 v -3.703 h 7.048 v 5.327 c 0,2.992 -1.872,4.578 -4.758,4.678"
       style="fill:#267ecb;fill-opacity:1;fill-rule:nonzero;stroke:none;stroke-width:0.487362"
       transform="matrix(0.72385095,0,0,-0.72385095,239.76951,112.55007)"
       clip-path="url(#clipPath46)" />
    <path
       id="path47"
       d="m 585.834,752.462 h 7.045 v 4.561 h -7.045 z"
       style="fill:#267ecb;fill-opacity:1;fill-rule:nonzero;stroke:none;stroke-width:0.487362"
       transform="matrix(0.72385095,0,0,-0.72385095,-140.93015,666.73756)"
       clip-path="url(#clipPath48)" />
    <path
       id="path49"
       d="m 0,0 v -7.976 l 6.766,0.016 v -11.457 h 7.045 V -7.96 l 7.121,-0.016 v 8.063 z"
       style="fill:#267ecb;fill-opacity:1;fill-rule:nonzero;stroke:none;stroke-width:0.487362"
       transform="matrix(0.72385095,0,0,-0.72385095,278.22909,102.93647)"
       clip-path="url(#clipPath50)" />
    <path
       id="path51"
       d="M 548.013,752.462 H 539.2 v 17.707 h 8.813 z"
       style="fill:#267ecb;fill-opacity:1;fill-rule:nonzero;stroke:none;stroke-width:0.487362"
       transform="matrix(0.72385095,0,0,-0.72385095,-140.93015,666.73756)"
       clip-path="url(#clipPath52)" />
    <path
       id="path53"
       d="M 548.013,772.724 H 539.2 v 6.345 h 8.813 z"
       style="fill:#267ecb;fill-opacity:1;fill-rule:nonzero;stroke:none;stroke-width:0.487362"
       transform="matrix(0.72385095,0,0,-0.72385095,-140.93015,666.73756)"
       clip-path="url(#clipPath54)" />
    <path
       id="path55"
       d="m 0,0 c 0.558,-7.994 3.568,-10.327 13.317,-10.327 11.649,0 13.227,2.096 13.449,9.686 C 19.379,-2.82 7.115,5.332 0,0"
       style="fill:#267ecb;fill-opacity:1;fill-rule:nonzero;stroke:none;stroke-width:0.487362"
       transform="matrix(0.72385095,0,0,-0.72385095,257.58941,114.59155)"
       clip-path="url(#clipPath56)" />
    <path
       id="path57"
       d="m 0,0 c -0.021,11.229 -2.259,13.612 -13.479,13.612 -9.069,0 -12.25,-1.808 -13.134,-8.313 C -19.489,10.392 -7.391,-1.451 0,0"
       style="fill:#267ecb;fill-opacity:1;fill-rule:nonzero;stroke:none;stroke-width:0.487362"
       transform="matrix(0.72385095,0,0,-0.72385095,276.98638,112.00018)"
       clip-path="url(#clipPath58)" />
    <path
       id="path59"
       d="M 0,0 V 0.071 C 0,0.038 0,0 0.004,0.133 -9.761,-0.464 -17.966,9.982 -26.565,5.406 -26.793,4.791 -26.932,3.756 -26.854,2.834 -18.896,8.153 -7.643,-2.401 0,0"
       style="fill:#267ecb;fill-opacity:1;fill-rule:nonzero;stroke:none;stroke-width:0.487362"
       transform="matrix(0.72385095,0,0,-0.72385095,277.11644,113.96036)"
       clip-path="url(#clipPath60)" />
    <path
       id="path61"
       d="M 0,0 C 0.004,0.023 0.004,0.016 0,0"
       style="fill:#267ecb;fill-opacity:1;fill-rule:nonzero;stroke:none;stroke-width:0.487362"
       transform="matrix(0.72385095,0,0,-0.72385095,277.11644,113.06755)"
       clip-path="url(#clipPath62)" />
    <path
       id="path63"
       d="M 0,0 V 0.015 Z"
       style="fill:#267ecb;fill-opacity:1;fill-rule:nonzero;stroke:none;stroke-width:0.487362"
       transform="matrix(0.72385095,0,0,-0.72385095,277.11644,113.07812)"
       clip-path="url(#clipPath64)" />
    <path
       id="path65"
       d="M 0,0 H 0.002 C 0.002,0.059 0,0.023 0,0"
       style="fill:#267ecb;fill-opacity:1;fill-rule:nonzero;stroke:none;stroke-width:0.487362"
       transform="matrix(0.72385095,0,0,-0.72385095,277.15315,113.68182)"
       clip-path="url(#clipPath66)" />
    <path
       id="path67"
       d="M 0,0 V 0 C -0.004,-0.047 0,-0.023 0,0"
       style="fill:#267ecb;fill-opacity:1;fill-rule:nonzero;stroke:none;stroke-width:0.487362"
       transform="matrix(0.72385095,0,0,-0.72385095,277.15315,113.68182)"
       clip-path="url(#clipPath68)" />
  </g>
</svg>
