<?xml version="1.0" encoding="UTF-8" standalone="no"?>
<!-- Created with Inkscape (http://www.inkscape.org/) -->

<svg
   xmlns:dc="http://purl.org/dc/elements/1.1/"
   xmlns:cc="http://creativecommons.org/ns#"
   xmlns:rdf="http://www.w3.org/1999/02/22-rdf-syntax-ns#"
   xmlns:svg="http://www.w3.org/2000/svg"
   xmlns="http://www.w3.org/2000/svg"
   xmlns:sodipodi="http://sodipodi.sourceforge.net/DTD/sodipodi-0.dtd"
   xmlns:inkscape="http://www.inkscape.org/namespaces/inkscape"
   width="209.76477"
   height="45.366562"
   viewBox="0 0 55.500263 12.003236"
   version="1.1"
   id="svg8"
   inkscape:version="0.92.0 r15299"
   sodipodi:docname="remington.svg">
  <defs
     id="defs2" />
  <sodipodi:namedview
     id="base"
     pagecolor="#ffffff"
     bordercolor="#666666"
     borderopacity="1.0"
     inkscape:pageopacity="0.0"
     inkscape:pageshadow="2"
     inkscape:zoom="3.8416442"
     inkscape:cx="104.38239"
     inkscape:cy="22.183282"
     inkscape:document-units="mm"
     inkscape:current-layer="layer1"
     showgrid="false"
     fit-margin-top="0"
     fit-margin-left="0"
     fit-margin-right="0"
     fit-margin-bottom="0"
     units="px"
     inkscape:window-width="1280"
     inkscape:window-height="744"
     inkscape:window-x="-4"
     inkscape:window-y="-4"
     inkscape:window-maximized="1" />
  <metadata
     id="metadata5">
    <rdf:RDF>
      <cc:Work
         rdf:about="">
        <dc:format>image/svg+xml</dc:format>
        <dc:type
           rdf:resource="http://purl.org/dc/dcmitype/StillImage" />
        <dc:title></dc:title>
      </cc:Work>
    </rdf:RDF>
  </metadata>
  <g
     inkscape:label="Layer 1"
     inkscape:groupmode="layer"
     id="layer1"
     transform="translate(334.53451,-269.69938)">
    <path
       id="path10"
       class="cls-1"
       d="m -279.22336,277.18211 c -0.41619,1.26576 -1.42981,1.68328 -2.42041,1.75789 -0.98954,0.0741 -1.61343,-0.97631 -1.28323,-1.79652 l 0.80645,-2.50032 c 0.39741,-1.0107 0.0386,-1.12977 -0.25664,-1.15622 -0.40217,-0.0397 -0.68475,0.33602 -0.83291,0.8202 l -1.40282,4.52173 h -1.95157 l 1.76371,-5.58271 h -0.82709 l 0.21167,-0.51329 h 2.52016 l -0.16669,0.52652 c 0.71437,-0.44185 1.28323,-0.65881 1.96585,-0.635 0.69586,0.037 1.24884,0.41011 1.06363,1.30705 l -1.07156,3.41312 c -0.34132,1.00013 0.55298,0.74348 0.7276,0.67733 0.13758,-0.0476 0.39423,-0.20108 0.42069,-0.46566 0,0 -0.14817,0.0503 -0.33338,-0.0622 -0.18521,-0.18785 -0.27252,-0.40296 -0.13758,-0.703 0.29369,-0.65511 1.5531,-0.69162 1.19856,0.3855 z m -11.16542,1.58406 c -1.22026,-0.19632 -2.23573,-1.77139 -1.77456,-3.32687 0.48101,-1.61767 1.2409,-2.1008 1.79255,-2.39925 0.54981,-0.30003 0.88027,-0.41063 1.64995,-0.44846 0.9525,-0.0455 2.0267,0.61647 2.30452,1.5441 0.30771,1.02923 0.13493,2.87602 -1.31445,3.98198 -0.74983,0.5715 -1.33747,0.86519 -2.65774,0.65088 z m 1.8886,-5.6515 c -0.8083,0 -0.88054,0.56012 -0.95435,0.74559 -0.0714,0.18786 -1.11655,3.3999 -1.11655,3.3999 -0.14552,0.59637 -0.0529,1.00489 0.56886,1.00489 0.62177,0 0.66146,-0.30004 0.84402,-0.67205 l 1.17475,-3.58351 c 0.14817,-0.48419 -0.10848,-0.89509 -0.51329,-0.89509 z m -2.86015,0.18626 h -0.9181 l -1.24672,3.88144 c -0.22013,0.52255 -0.10901,1.08268 0.47704,0.52255 l 0.29105,-0.33337 0.14552,0.33602 c -0.40482,0.59796 -1.10067,1.19856 -1.98173,1.2356 -0.88106,0.0397 -1.21179,-0.89958 -0.80698,-2.05581 l 1.1721,-3.58246 h -0.73448 l 0.2196,-0.56885 h 0.72232 l 0.47625,-1.40759 h 1.88198 l -0.40296,1.40997 h 0.88106 l -0.18362,0.56885 z m -4.65719,-1.00753 c -0.0733,-0.22304 -0.3646,0.0212 -0.47361,0.13388 0,0 -0.14922,0.20214 -0.14922,0.31406 0.006,0.0714 0.13335,0.11906 0.2831,0.21431 0.25929,0.16404 1.19751,0.70379 0.75142,2.08227 -0.48763,1.524 -2.17303,1.77271 -2.90645,1.73567 -0.73343,-0.037 -1.28323,-0.18521 -1.39303,0.26194 -0.11033,0.44714 0.62309,0.59796 1.43007,0.59796 0.80645,0 1.46659,0.0847 1.97062,0.59795 0.45588,0.46302 0.93848,3.175 -2.84904,3.175 -3.88408,0 -3.61367,-2.39448 -2.27541,-2.68816 -0.43709,-1.59015 0.67204,-2.14313 1.41155,-2.34157 0,0 -1.1176,-0.75406 -0.53049,-2.28335 0.58552,-1.53194 2.62996,-1.63142 2.96148,-1.63142 0.32994,0 0.56621,0.0622 0.70326,0.11112 0,0 0.17384,-0.35269 0.39344,-0.61383 0.2204,-0.26194 0.72311,-0.65722 1.11125,-0.6641 0.14764,-0.005 0.9361,0.0624 0.80698,0.74612 -0.14632,0.77259 -1.09908,0.67151 -1.24619,0.26035 z m -4.79161,6.95007 c -0.77046,-0.0751 -1.23507,0.37757 -0.56277,1.11178 0.51065,0.56092 2.75696,0.8218 3.66448,0.18601 0.57944,-0.40482 0.0212,-0.99748 -0.67469,-1.03188 -0.47625,-0.0238 -0.3175,-0.0476 -1.38112,-0.15875 l -1.05304,-0.10319 z m 3.17606,-6.20342 c -0.3392,-0.0355 -0.80592,-0.0376 -0.98901,0.52229 l -0.62363,1.94046 c -0.18256,0.70855 0.54981,0.78422 0.6604,0.74718 0.11113,-0.0386 0.58738,0.18627 0.84403,-0.59875 l 0.55033,-1.79123 c 0.14817,-0.33602 -0.10848,-0.78846 -0.43921,-0.82021 z m -4.91278,4.06877 c -0.40323,1.15623 0.11112,0.9689 0.40402,0.74612 l 0.2196,0.26141 c 0,0 -0.88106,0.82365 -1.651,0.82365 -0.76994,0 -1.19856,-0.73554 -0.99748,-1.51871 l 1.01335,-3.26231 c 0.24078,-0.8255 -0.78581,-0.86254 -1.0451,-0.1905 l -1.53961,4.85537 h -1.905 l 1.62983,-5.52186 h -0.75141 l 0.14684,-0.4908 h 2.53471 l -0.11536,0.4101 c 0.36777,-0.26193 1.28323,-0.59795 1.94469,-0.56091 0.65881,0.0384 1.27794,0.62706 1.08214,1.34223 l -0.97366,3.10091 z m -5.72029,-5.0255 c -1.13692,0 -1.06257,-2.24023 0.36777,-2.24023 1.5023,0 0.98821,2.24023 -0.36777,2.24023 z m -0.59532,4.47331 c -0.14684,0.41275 -0.36988,0.96838 -0.21166,1.33615 0.11324,0.26193 0.3757,0.0556 0.74136,-0.31486 l 0.28575,0.16934 c -0.18415,0.22225 -1.02658,1.19856 -1.94469,1.19856 -0.91546,0 -1.28323,-0.71173 -0.98848,-1.64571 l 1.18057,-3.9796 h -0.74136 l 0.16219,-0.5035 h 2.69848 c 0,0 -1.03452,3.32925 -1.18136,3.73936 z m -3.2557,0.0317 c -0.14552,0.41011 -0.4392,0.97102 -0.2196,1.27 0.2196,0.29898 0.45561,0.14288 0.74957,-0.30427 l 0.27252,0.17727 c -0.40482,0.59796 -1.05913,1.21444 -1.97538,1.21444 -0.91678,0 -1.12078,-0.85461 -1.04775,-1.34144 0.0733,-0.48419 0.508,-1.73831 0.99853,-3.27554 0.42016,-1.31498 -0.91228,-0.85249 -1.15808,-0.0355 l -1.46843,4.54289 h -1.87061 l 1.39436,-4.52173 c 0.32014,-1.23931 -0.79111,-0.81333 -1.01336,-0.1225 l -1.44462,4.64079 h -1.91823 l 1.66158,-5.40544 h -0.80698 l 0.22225,-0.60748 h 2.70404 l -0.13758,0.4101 c 0.69585,-0.59795 2.24314,-0.87921 2.71198,0.11113 0.40481,-0.26061 1.24883,-0.74665 2.09021,-0.67204 0.84402,0.0741 1.20914,0.74718 1.10066,1.27 0,0 -0.6985,2.2389 -0.84402,2.6498 z m -10.11634,-0.17198 c -0.57891,0.0132 -1.23428,0 -1.66158,-0.21696 -0.67416,1.79123 0.0979,2.8628 1.44833,2.07698 0.66886,-0.39158 1.19988,-1.27793 1.19988,-1.27793 l 0.33073,0.26193 c -0.41275,0.61384 -0.98689,1.82034 -2.71462,1.82034 -1.97909,0 -2.89455,-1.85473 -2.45534,-3.38402 0.44186,-1.53194 1.91294,-2.83369 3.11679,-2.95275 1.4605,-0.14023 2.53471,0.29897 2.75167,1.30704 0.22225,1.00806 -0.55033,2.33627 -2.01348,2.37066 z m 0.14605,-3.06387 c -0.21881,-0.25929 -0.82365,-0.18521 -1.11654,0.48683 l -0.57626,1.90765 c 0.14816,0.20373 0.87127,0.36777 1.32291,-0.39159 0.61648,-1.03716 0.59188,-1.73831 0.36989,-2.00025 z m -6.59342,1.42346 c 1.64042,0.39687 2.81464,4.14866 3.03477,4.8207 0.2204,0.67205 0.50007,1.30705 1.45574,1.30705 0.71438,0 1.03558,-0.24871 1.73302,-0.84403 l 0.25533,0.33603 c -2.11138,1.83885 -4.10369,1.143 -4.87363,0.43127 -1.01071,-0.92869 -1.24354,-3.22527 -1.96321,-5.09588 -0.25135,-0.65087 -0.73025,-1.00542 -0.96837,-0.98689 l -1.13242,3.59833 h 1.31763 l -0.14552,0.48948 h -4.43469 l 0.18257,-0.52652 h 1.03452 l 2.48258,-7.94835 h -1.06891 l 0.18256,-0.52546 h 4.16639 c 0.94536,0 1.43537,0.054 1.91559,0.59425 0.61277,0.68527 0.49,1.94892 0.18203,2.61938 -0.55668,1.2065 -1.23375,1.42875 -3.35624,1.73037 z m 0.79534,-4.44792 h -0.74612 l -1.23296,3.94335 c 0.98689,0 1.76159,0.22384 2.39315,-1.65496 0.71438,-2.12461 -0.0101,-2.28865 -0.41354,-2.28865 z"
       inkscape:connector-curvature="0"
       style="fill:#000000;stroke-width:0.26458332" />
  </g>
</svg>
